<?xml version="1.0" encoding="UTF-8"?>
<svg xmlns="http://www.w3.org/2000/svg" xmlns:xlink="http://www.w3.org/1999/xlink" width="432.88pt" height="153.82pt" viewBox="0 0 432.88 153.82" version="1.1">
<defs>
<clipPath id="clip1">
  <path d="M 150 82 L 222 82 L 222 153.820313 L 150 153.820313 Z M 150 82 "/>
</clipPath>
<clipPath id="clip2">
  <path d="M 65 82 L 148 82 L 148 153.820313 L 65 153.820313 Z M 65 82 "/>
</clipPath>
<clipPath id="clip3">
  <path d="M 349 83 L 432.878906 83 L 432.878906 153 L 349 153 Z M 349 83 "/>
</clipPath>
</defs>
<g id="surface1">
<path style=" stroke:none;fill-rule:evenodd;fill:rgb(13.699341%,12.199402%,12.5%);fill-opacity:1;" d="M 106.253906 1.382813 L 102.867188 15.867188 C 102.488281 16.269531 102.039063 16.535156 101.4375 16.335938 C 99.933594 15.195313 100.535156 12.984375 99.855469 11.375 C 99.40625 8.828125 96.695313 6.480469 93.910156 5.878906 C 89.246094 5.074219 83 4.535156 79.238281 7.554688 C 77.507813 9.296875 77.207031 11.574219 77.433594 14.054688 L 77.433594 28.738281 L 77.582031 28.804688 C 86.460938 30.28125 96.769531 29.878906 105.273438 28 C 105.800781 27.933594 106.253906 28.203125 106.628906 28.605469 C 106.929688 29.476563 106.328125 30.347656 105.574219 30.886719 C 102.488281 32.894531 98.953125 33.902344 95.417969 34.976563 C 89.847656 36.515625 83.675781 36.785156 77.507813 36.851563 L 77.507813 58.035156 C 77.65625 60.785156 80.066406 63.46875 83 64.339844 C 90.527344 66.082031 99.40625 65.34375 104.445313 59.511719 C 106.929688 57.367188 106.554688 54.148438 109.035156 52.136719 C 109.640625 51.9375 110.089844 52.339844 110.242188 52.808594 C 110.316406 57.769531 108.964844 62.261719 106.628906 66.417969 C 103.542969 71.714844 96.167969 69.769531 90.527344 70.039063 C 79.539063 69.367188 68.25 69.570313 57.191406 69.835938 C 55.984375 69.769531 54.554688 69.636719 53.953125 68.628906 C 53.804688 67.894531 54.78125 67.757813 55.234375 67.488281 C 58.019531 67.355469 60.800781 66.753906 62.53125 64.472656 C 64.566406 61.726563 64.714844 58.238281 64.714844 54.683594 L 64.640625 10.839844 C 64.339844 8.15625 63.285156 5.339844 60.351563 4 C 59.523438 3.328125 57.566406 3.398438 57.867188 2.054688 C 58.769531 1.316406 59.972656 1.253906 61.253906 1.117188 L 78.257813 1.382813 L 103.242188 0.648438 C 104.296875 0.78125 105.574219 0.515625 106.253906 1.382813 "/>
<path style=" stroke:none;fill-rule:evenodd;fill:rgb(13.699341%,12.199402%,12.5%);fill-opacity:1;" d="M 273.984375 1.449219 L 270.601563 15.867188 C 270.375 16.269531 269.769531 16.535156 269.242188 16.335938 C 267.589844 15.128906 268.339844 12.78125 267.589844 11.105469 C 267.0625 8.960938 264.878906 6.816406 262.472656 6.144531 C 257.503906 5.007813 250.203125 4.335938 246.445313 8.15625 C 245.613281 9.296875 245.238281 10.703125 245.238281 12.179688 L 245.238281 28.738281 L 245.464844 28.804688 C 254.195313 30.28125 264.574219 29.878906 273.003906 28 C 273.53125 27.933594 274.0625 28.269531 274.359375 28.671875 C 274.664063 29.410156 274.210938 30.214844 273.53125 30.75 C 270.445313 32.964844 266.757813 33.765625 263.148438 34.976563 C 257.578125 36.3125 251.5625 36.851563 245.316406 36.851563 L 245.316406 58.171875 C 245.613281 60.183594 246.59375 62.058594 248.699219 63.332031 C 254.34375 66.148438 263 65.679688 268.417969 62.597656 C 272.105469 60.316406 274.585938 56.898438 275.640625 53.277344 C 276.019531 52.875 276.167969 52.339844 276.769531 52.136719 C 277.296875 52.003906 277.75 52.269531 277.972656 52.605469 C 278.195313 57.835938 276.542969 62.597656 274.0625 66.886719 C 270.601563 71.847656 263.148438 69.769531 257.652344 69.835938 L 255.925781 69.703125 C 247.648438 65.816406 239.671875 61.390625 232.597656 55.019531 L 232.519531 11.171875 C 232.21875 8.222656 231.015625 5.140625 227.78125 3.800781 C 227.027344 3.261719 225.222656 3.261719 225.597656 2.054688 C 226.503906 1.316406 227.78125 1.253906 228.984375 1.117188 L 246.144531 1.382813 L 271.125 0.648438 C 272.105469 0.847656 273.53125 0.445313 273.984375 1.449219 "/>
<path style=" stroke:none;fill-rule:evenodd;fill:rgb(13.699341%,12.199402%,12.5%);fill-opacity:1;" d="M 56.886719 1.117188 C 55.984375 6.546875 54.933594 12.046875 53.804688 17.476563 C 53.652344 17.8125 53.351563 18.144531 52.976563 18.214844 C 52.449219 18.28125 52.074219 18.144531 51.769531 17.878906 C 50.117188 15.664063 51.621094 12.246094 49.890625 10.035156 C 46.730469 4.269531 38.828125 5.40625 32.433594 5.339844 C 29.421875 5.542969 26.035156 6.949219 25.058594 9.765625 C 24.078125 12.246094 24.382813 15.128906 24.304688 17.878906 L 24.304688 30.550781 C 34.613281 31.6875 46.277344 31.554688 56.136719 29.679688 C 56.738281 29.679688 57.566406 29.542969 57.714844 30.214844 C 57.792969 30.683594 57.640625 31.285156 57.265625 31.6875 C 51.09375 35.980469 43.644531 37.65625 35.820313 38.394531 C 32.132813 38.796875 28.21875 38.796875 24.382813 38.660156 C 24.53125 46.238281 23.628906 54.351563 25.132813 61.457031 C 25.660156 63.667969 27.464844 66.351563 30.175781 66.820313 C 31.304688 67.222656 32.960938 66.953125 33.636719 67.960938 C 33.785156 68.429688 33.710938 68.898438 33.484375 69.167969 C 31.605469 69.972656 29.121094 69.5 26.941406 69.570313 L 12.113281 69.101563 C 8.804688 69.167969 5.492188 69.835938 2.179688 69.433594 C 1.804688 69.300781 1.503906 69.101563 1.429688 68.695313 C 1.355469 68.292969 1.65625 67.960938 2.105469 67.824219 C 4.964844 66.953125 8.652344 66.953125 10.007813 63.871094 C 11.0625 62.191406 11.289063 60.183594 11.511719 58.238281 L 11.589844 14.59375 C 11.0625 10.703125 10.683594 6.414063 6.472656 4.199219 C 4.964844 3.800781 3.011719 3.933594 1.957031 2.792969 C 1.882813 2.390625 2.105469 2.054688 2.332031 1.789063 C 3.160156 1.253906 4.214844 1.117188 5.34375 1.183594 L 20.542969 1.519531 L 51.167969 0.980469 C 53.050781 0.980469 55.15625 0.578125 56.886719 1.117188 "/>
<path style=" stroke:none;fill-rule:nonzero;fill:rgb(13.699341%,12.199402%,12.5%);fill-opacity:1;" d="M 137.40625 32.15625 C 135.601563 31.957031 133.34375 32.695313 132.363281 31.085938 L 132.140625 30.28125 L 132.214844 11.171875 C 132.515625 8.625 133.34375 5.808594 136.429688 4.871094 C 142.144531 3.398438 148.242188 4.9375 151.777344 9.363281 C 154.488281 12.914063 155.164063 18.480469 153.359375 22.636719 C 150.726563 28.335938 144.027344 31.824219 137.40625 32.15625 Z M 191.964844 67.691406 C 191.734375 67.15625 191.058594 66.820313 190.53125 66.6875 C 183.15625 66.082031 177.816406 60.855469 172.546875 55.960938 L 156.671875 39.53125 C 154.714844 37.65625 152.53125 35.910156 150.273438 34.640625 C 158.175781 31.285156 167.582031 24.851563 168.484375 16.535156 C 169.3125 11.308594 166.679688 6.75 162.011719 3.664063 C 154.488281 -0.289063 143.804688 1.050781 134.996094 1.585938 L 130.03125 1.652344 C 123.335938 1.652344 116.789063 0.714844 110.089844 1.117188 C 109.640625 1.316406 109.488281 1.789063 109.640625 2.1875 C 110.917969 3.597656 113.175781 3.464844 114.757813 4.402344 C 117.613281 5.941406 118.292969 8.625 118.59375 11.308594 L 118.742188 52.941406 C 118.671875 57.03125 118.96875 61.1875 116.636719 64.40625 C 114.90625 67.085938 111.671875 67.019531 108.886719 67.757813 C 108.511719 67.960938 107.832031 68.363281 108.058594 68.964844 C 108.511719 69.769531 109.5625 69.636719 110.390625 69.769531 L 121.527344 69.300781 C 128.074219 68.695313 134.171875 69.902344 140.640625 69.703125 C 141.167969 69.570313 141.695313 69.367188 141.847656 68.964844 C 141.996094 66.617188 138.835938 67.355469 137.328125 66.550781 C 133.796875 65.078125 132.515625 61.726563 132.214844 58.574219 L 132.140625 36.71875 C 134.847656 35.910156 137.40625 36.984375 139.363281 38.394531 C 148.695313 45.632813 152.90625 55.085938 161.484375 62.796875 C 168.109375 69.636719 177.738281 70.238281 187.597656 69.902344 C 188.953125 69.835938 190.308594 69.703125 191.433594 69.035156 C 191.886719 68.695313 192.113281 68.160156 191.964844 67.691406 "/>
<path style=" stroke:none;fill-rule:nonzero;fill:rgb(13.699341%,12.199402%,12.5%);fill-opacity:1;" d="M 190.382813 32.089844 C 189.628906 31.957031 188.878906 31.621094 188.574219 30.949219 C 188.351563 24.449219 188.425781 17.742188 188.574219 11.242188 C 188.800781 8.691406 189.628906 5.941406 192.640625 4.9375 C 198.734375 3.328125 205.582031 5.074219 208.816406 10.234375 C 211.378906 14.390625 211.527344 20.828125 208.441406 24.851563 C 204.304688 30.28125 197.683594 32.695313 190.382813 32.089844 Z M 248.25 67.691406 C 248.101563 67.222656 247.570313 66.886719 247.046875 66.753906 C 239.523438 66.285156 234.253906 60.785156 228.835938 55.890625 L 213.03125 39.601563 C 211.074219 37.722656 208.894531 35.980469 206.636719 34.640625 C 208.21875 33.902344 209.796875 33.03125 211.378906 32.292969 C 219.203125 28.136719 226.277344 20.894531 224.769531 12.246094 C 223.867188 8.15625 220.183594 3.800781 215.589844 2.390625 C 208.289063 0.3125 199.1875 0.980469 191.359375 1.585938 C 183.683594 1.988281 176.234375 1.050781 168.636719 0.980469 C 167.730469 1.117188 166.679688 0.78125 166.074219 1.519531 C 165.925781 3.664063 168.9375 3.195313 170.289063 4 C 173.375 5.074219 174.503906 8.023438 174.882813 10.636719 L 174.953125 54.417969 C 178.792969 58.105469 182.78125 62.796875 188.5 63.199219 L 188.5 36.71875 C 191.132813 35.910156 193.617188 36.984375 195.648438 38.394531 C 204.453125 45.230469 208.742188 54.082031 216.417969 61.457031 C 223.191406 69.300781 233.347656 70.507813 244.035156 69.902344 C 245.464844 69.902344 246.820313 69.636719 247.949219 68.964844 C 248.25 68.628906 248.476563 68.160156 248.25 67.691406 "/>
<path style=" stroke:none;fill-rule:nonzero;fill:rgb(13.699341%,12.199402%,12.5%);fill-opacity:1;" d="M 303.855469 32.089844 C 303.183594 31.957031 302.503906 31.6875 302.203125 31.085938 L 301.976563 30.28125 L 302.054688 11.171875 C 302.351563 8.625 303.183594 5.808594 306.265625 4.871094 C 312.511719 3.261719 319.363281 5.207031 322.441406 10.503906 C 325.078125 14.996094 324.929688 21.835938 321.242188 25.789063 C 316.878906 30.613281 310.78125 32.628906 303.855469 32.089844 Z M 361.800781 67.691406 C 361.574219 67.222656 361.050781 66.886719 360.597656 66.753906 C 353.148438 66.285156 347.882813 60.921875 342.613281 56.160156 L 326.511719 39.53125 C 324.554688 37.65625 322.371094 35.910156 320.113281 34.640625 C 326.808594 31.6875 334.785156 26.660156 337.421875 20.023438 C 339.601563 15.0625 338.472656 8.960938 333.960938 5.207031 C 326.511719 -0.828125 314.542969 1.253906 304.914063 1.585938 C 296.484375 2.121094 288.511719 0.78125 280.230469 1.050781 C 279.703125 1.183594 279.476563 1.585938 279.476563 2.054688 C 280.457031 3.664063 282.863281 3.398438 284.441406 4.269531 C 287.527344 5.808594 288.28125 8.761719 288.511719 11.644531 L 288.582031 56.09375 C 288.65625 59.175781 288.128906 61.992188 286.476563 64.40625 C 284.667969 67.085938 281.433594 66.953125 278.648438 67.824219 C 278.125 67.960938 277.898438 68.496094 277.972656 69.035156 C 278.5 69.703125 279.476563 69.636719 280.230469 69.769531 L 291.363281 69.300781 C 298.140625 68.5625 304.535156 70.238281 311.160156 69.5 C 311.761719 69.234375 311.839844 68.695313 311.839844 68.160156 C 310.933594 67.085938 309.273438 67.289063 308.074219 66.820313 C 303.480469 65.546875 302.351563 61.253906 302.054688 57.5 L 301.976563 36.71875 C 304.609375 35.980469 307.171875 36.851563 309.125 38.324219 C 318.007813 45.03125 322.144531 54.015625 329.894531 61.390625 C 334.863281 66.753906 341.257813 69.570313 348.710938 69.835938 C 352.84375 69.835938 357.660156 70.574219 361.273438 69.035156 C 361.726563 68.695313 362.027344 68.160156 361.800781 67.691406 "/>
<path style=" stroke:none;fill-rule:nonzero;fill:rgb(13.699341%,12.199402%,12.5%);fill-opacity:1;" d="M 401.910156 59.648438 C 395.964844 66.082031 386.332031 67.824219 377.605469 65.546875 C 362.855469 60.855469 357.511719 46.90625 357.363281 33.96875 C 357.8125 22.972656 361.726563 11.84375 373.386719 6.414063 C 381.746094 2.996094 393.332031 3.867188 400.105469 9.832031 C 402.359375 11.777344 404.167969 13.855469 405.519531 16.066406 C 413.347656 28.871094 412.371094 48.25 401.910156 59.648438 Z M 421.851563 22.703125 C 419.816406 18.480469 417.183594 14.460938 413.347656 10.972656 C 401.835938 0.179688 382.644531 -3.039063 367.59375 3.0625 C 352.46875 8.828125 342.386719 22.773438 343.441406 37.589844 C 343.742188 50.59375 353.902344 63.601563 367.820313 68.09375 C 382.417969 73.324219 400.253906 70.304688 411.617188 60.921875 C 423.730469 51.46875 427.644531 35.847656 421.851563 22.703125 "/>
<g clip-path="url(#clip1)" clip-rule="nonzero">
<path style=" stroke:none;fill-rule:evenodd;fill:rgb(13.699341%,12.199402%,12.5%);fill-opacity:1;" d="M 215.289063 85.191406 C 215.890625 85.523438 216.492188 85.925781 216.871094 86.53125 L 216.871094 87.46875 L 213.03125 102.621094 C 212.65625 103.628906 212.355469 104.765625 211.226563 105.367188 C 210.625 105.503906 210.324219 105.035156 210.171875 104.699219 C 210.773438 98.800781 209.34375 93.4375 204.003906 89.816406 C 198.058594 85.523438 188.125 85.660156 181.503906 88.542969 C 168.257813 94.644531 162.992188 107.445313 164.496094 120.253906 C 165.925781 130.511719 173.375 141.238281 184.8125 145.261719 C 196.851563 149.414063 210.472656 145.933594 218.902344 137.351563 C 219.277344 136.8125 219.578125 136.210938 220.257813 135.808594 C 221.007813 135.671875 221.234375 136.410156 221.460938 136.8125 C 221.683594 138.625 220.105469 139.960938 218.675781 141.238281 C 208.519531 150.894531 194.972656 156.121094 180.222656 152.835938 C 166.378906 150.089844 153.433594 137.886719 150.949219 125.484375 C 147.867188 110.601563 154.714844 96.382813 169.011719 88.140625 C 181.351563 81.703125 198.734375 81.296875 212.957031 84.316406 L 215.289063 85.191406 "/>
</g>
<path style=" stroke:none;fill-rule:evenodd;fill:rgb(13.699341%,12.199402%,12.5%);fill-opacity:1;" d="M 227.859375 83.78125 L 246.894531 83.246094 C 247.570313 83.246094 248.101563 83.511719 248.476563 83.914063 C 248.699219 84.519531 248.476563 85.324219 247.726563 85.523438 C 244.863281 85.925781 241.550781 86.867188 240.574219 89.683594 C 237.863281 96.320313 239.523438 104.699219 239.144531 112.144531 C 249.679688 113.683594 261.339844 112.878906 271.199219 110.53125 C 270.820313 103.492188 272.554688 95.578125 269.769531 89.347656 C 268.265625 86.199219 264.425781 86.0625 261.417969 85.257813 C 260.964844 84.988281 260.816406 84.519531 261.042969 84.121094 C 261.417969 83.511719 262.242188 83.511719 263.070313 83.445313 C 266.53125 83.511719 269.921875 83.914063 273.457031 84.050781 L 292.347656 83.445313 C 292.945313 83.582031 293.625 83.582031 294 84.183594 C 294.078125 84.585938 294.078125 85.121094 293.695313 85.457031 C 291.894531 86.261719 289.636719 86.0625 288.058594 87.269531 C 284.441406 90.351563 284.441406 94.773438 284.371094 99.136719 L 284.441406 139.628906 C 284.820313 143.316406 285.347656 147.539063 289.5625 149.347656 C 290.988281 150.023438 293.320313 149.414063 294.078125 150.957031 C 294.226563 151.5625 293.773438 152.101563 293.25 152.230469 C 286.777344 152.570313 280.308594 151.898438 273.835938 151.828125 C 270.070313 151.964844 266.460938 152.433594 262.625 152.433594 C 261.945313 152.300781 261.191406 152.167969 260.964844 151.5625 C 260.816406 151.09375 261.191406 150.691406 261.644531 150.554688 C 264.503906 149.75 268.113281 149.75 269.617188 146.804688 C 270.671875 144.992188 271.046875 142.914063 271.199219 140.769531 L 271.273438 116.5 C 269.542969 116.902344 267.664063 117.507813 265.859375 118.039063 C 257.503906 120.117188 248.550781 120.992188 239.296875 121.125 C 239.21875 128.5 238.617188 136.074219 239.523438 143.246094 C 240.121094 145.730469 241.253906 148.542969 244.261719 149.550781 C 245.691406 150.355469 249.003906 149.484375 248.476563 151.898438 C 248.023438 152.570313 247.195313 152.503906 246.445313 152.570313 C 240.351563 152.703125 234.628906 151.964844 228.535156 152.03125 L 217.394531 152.570313 C 216.871094 152.503906 216.269531 152.367188 215.96875 151.828125 C 215.742188 151.230469 216.34375 150.757813 216.945313 150.621094 C 219.578125 150.023438 222.738281 149.820313 224.320313 147.273438 C 226.425781 143.785156 226.050781 139.359375 226.199219 135.074219 L 226.128906 95.175781 C 225.824219 91.890625 225.296875 88.40625 221.910156 86.53125 C 220.105469 85.792969 217.996094 85.59375 216.191406 84.855469 C 215.816406 84.519531 215.890625 84.121094 216.117188 83.710938 C 217.546875 82.914063 219.804688 83.316406 221.535156 83.378906 L 227.859375 83.78125 "/>
<path style=" stroke:none;fill-rule:evenodd;fill:rgb(13.699341%,12.199402%,12.5%);fill-opacity:1;" d="M 347.128906 84.121094 C 346.074219 89.011719 344.945313 93.90625 343.667969 98.734375 C 343.363281 99.136719 342.761719 99.335938 342.3125 99.070313 C 340.960938 97.792969 341.410156 95.714844 340.882813 94.105469 C 340.351563 91.488281 337.644531 89.28125 334.863281 88.609375 C 329.746094 87.871094 322.746094 86.996094 319.363281 91.222656 C 318.605469 92.363281 318.457031 93.773438 318.382813 95.175781 L 318.382813 111.46875 C 327.113281 113.144531 337.570313 112.675781 345.925781 110.730469 C 346.597656 110.664063 347.203125 110.9375 347.578125 111.40625 C 347.882813 112.945313 346.152344 114.019531 344.945313 114.691406 C 337.046875 118.441406 328.015625 119.648438 318.457031 119.714844 L 318.457031 140.769531 C 318.605469 143.519531 320.9375 146.199219 323.949219 147.003906 C 331.699219 148.949219 341.03125 148.011719 345.925781 141.574219 C 347.882813 139.628906 347.730469 136.949219 349.6875 135.003906 C 349.988281 134.871094 350.511719 134.734375 350.8125 134.9375 C 351.5625 135.671875 351.039063 136.878906 351.113281 137.820313 C 350.589844 142.246094 349.460938 146.53125 346.824219 150.21875 C 343.667969 153.976563 337.945313 152.703125 333.132813 152.90625 C 321.617188 152.03125 309.5 152.433594 297.835938 152.570313 C 296.785156 152.503906 295.660156 152.367188 294.980469 151.5625 C 294.679688 151.09375 295.128906 150.621094 295.582031 150.492188 C 298.21875 149.886719 301.074219 149.886719 302.957031 147.738281 C 306.792969 143.585938 305.367188 137.554688 305.742188 132.054688 L 305.664063 93.703125 C 305.289063 90.957031 304.234375 88.140625 301.300781 86.730469 C 300.398438 86.261719 299.34375 86.128906 298.667969 85.390625 C 298.515625 84.652344 299.34375 84.386719 299.871094 84.183594 L 302.351563 83.914063 L 318.910156 84.121094 L 342.535156 83.445313 C 344.117188 83.582031 346.074219 83.042969 347.128906 84.121094 "/>
<g clip-path="url(#clip2)" clip-rule="nonzero">
<path style=" stroke:none;fill-rule:nonzero;fill:rgb(13.699341%,12.199402%,12.5%);fill-opacity:1;" d="M 125.214844 141.976563 C 119.570313 148.480469 110.691406 150.621094 101.886719 148.882813 C 88.792969 146.199219 81.945313 133.59375 80.441406 122.867188 C 79.238281 112.074219 81.195313 101.550781 88.792969 93.570313 C 94.890625 87.40625 104.144531 85.523438 113.101563 87.46875 C 119.121094 88.742188 124.765625 93.167969 127.847656 98.128906 C 135.824219 110.867188 135.226563 130.308594 125.214844 141.976563 Z M 144.78125 104.632813 C 141.921875 98.265625 136.203125 92.027344 129.355469 88.074219 C 118.066406 80.898438 99.78125 80.160156 87.664063 86.394531 C 72.617188 93.636719 64.261719 107.78125 66.292969 123.003906 C 67.421875 135.476563 78.710938 147.738281 92.105469 151.425781 C 108.511719 156.320313 126.269531 152.167969 137.859375 140.835938 C 147.714844 131.515625 150.425781 116.363281 144.78125 104.632813 "/>
</g>
<path style=" stroke:none;fill-rule:nonzero;fill:rgb(13.699341%,12.199402%,12.5%);fill-opacity:1;" d="M 25.734375 114.824219 C 25.132813 114.691406 24.53125 114.351563 24.230469 113.820313 L 24.003906 112.878906 L 24.003906 94.441406 C 24.230469 92.027344 24.679688 89.613281 27.089844 88.140625 C 31.226563 86.328125 36.949219 86.933594 40.636719 89.144531 C 42.214844 90.152344 43.570313 91.558594 44.398438 93.035156 C 47.03125 97.59375 46.957031 104.433594 43.191406 108.523438 C 38.828125 113.417969 32.582031 115.359375 25.734375 114.824219 Z M 83.375 149.886719 C 81.117188 148.882813 78.257813 149.148438 76.152344 147.808594 C 65.46875 141.773438 58.394531 131.785156 49.890625 123.605469 C 47.558594 121.257813 44.921875 118.914063 42.066406 117.371094 C 48.460938 114.554688 55.757813 110.199219 58.84375 104.03125 C 61.027344 100.070313 61.253906 94.308594 58.394531 90.621094 C 52.449219 82.101563 40.257813 83.710938 30.097656 84.121094 C 20.691406 85.324219 11.4375 83.378906 2.105469 83.847656 C 1.578125 83.984375 1.355469 84.519531 1.578125 84.988281 C 2.785156 86.328125 4.816406 86.261719 6.394531 86.996094 C 9.480469 88.476563 10.234375 91.425781 10.460938 94.242188 L 10.535156 138.554688 C 10.609375 142.378906 10.234375 146.199219 6.847656 148.816406 C 5.042969 150.425781 1.957031 149.484375 0.0742188 151.027344 L 0 151.765625 C 0.453125 152.367188 1.355469 152.503906 2.179688 152.503906 C 12.1875 151.898438 21.972656 152.230469 32.054688 152.433594 C 32.65625 152.433594 33.335938 152.300781 33.710938 151.828125 C 33.863281 151.296875 33.863281 150.621094 33.183594 150.355469 C 31.753906 149.886719 30.175781 149.75 28.820313 149.148438 C 25.058594 147.335938 24.457031 143.648438 24.003906 140.300781 L 24.003906 119.515625 C 26.636719 118.644531 29.199219 119.714844 31.226563 121.125 C 40.332031 128.230469 44.472656 137.417969 52.675781 144.992188 C 58.917969 151.628906 67.574219 152.90625 76.90625 152.769531 C 79.386719 152.632813 82.097656 152.90625 83.753906 151.363281 C 83.902344 150.828125 83.828125 150.21875 83.375 149.886719 "/>
<g clip-path="url(#clip3)" clip-rule="nonzero">
<path style=" stroke:none;fill-rule:nonzero;fill:rgb(13.699341%,12.199402%,12.5%);fill-opacity:1;" d="M 374.519531 114.753906 C 373.988281 114.625 373.464844 114.222656 373.238281 113.820313 L 373.011719 112.8125 L 373.089844 94.105469 C 373.316406 91.488281 374.144531 88.542969 377.378906 87.601563 C 383.476563 86.128906 390.320313 87.738281 393.480469 92.96875 C 396.191406 97.527344 396.039063 104.296875 392.429688 108.386719 C 387.988281 113.347656 381.589844 115.558594 374.519531 114.753906 Z M 432.386719 149.953125 C 430.125 148.816406 427.195313 149.21875 425.089844 147.738281 C 414.328125 141.574219 407.023438 131.515625 398.523438 123.207031 C 396.339844 120.921875 393.785156 118.914063 391.148438 117.371094 C 397.921875 114.417969 406.046875 109.390625 408.527344 102.621094 C 410.5625 97.660156 409.433594 91.625 404.996094 87.9375 C 398.523438 82.640625 388.738281 83.710938 380.085938 84.050781 C 370.378906 85.324219 360.820313 83.378906 351.1875 83.847656 C 350.589844 83.914063 350.511719 84.519531 350.589844 84.921875 C 351.792969 86.394531 353.976563 86.199219 355.554688 87.066406 C 358.566406 88.542969 359.164063 91.425781 359.539063 94.105469 L 359.617188 138.351563 C 359.617188 141.574219 359.394531 144.792969 357.4375 147.335938 C 355.703125 149.886719 352.46875 149.75 349.761719 150.554688 C 349.3125 150.757813 348.859375 151.160156 349.085938 151.699219 C 349.382813 152.433594 350.363281 152.433594 351.1875 152.503906 C 359.394531 152.367188 367.519531 151.699219 375.648438 152.433594 C 377.753906 152.433594 380.085938 152.570313 382.191406 152.300781 C 382.796875 152.101563 383.097656 151.425781 382.871094 150.894531 C 381.667969 149.6875 379.632813 150.023438 378.207031 149.285156 C 374.441406 147.675781 373.613281 144.058594 373.164063 140.769531 L 373.089844 119.449219 C 375.722656 118.644531 378.207031 119.714844 380.238281 121.058594 C 390.246094 128.902344 394.386719 139.226563 404.316406 147.207031 C 410.1875 152.03125 417.859375 152.90625 425.992188 152.769531 C 428.394531 152.703125 431.03125 152.835938 432.761719 151.425781 C 432.988281 150.957031 432.914063 150.289063 432.386719 149.953125 "/>
</g>
</g>
</svg>
